<mxfile host="app.diagrams.net" modified="2020-11-28T17:31:42.391Z" agent="5.0 (Windows NT 6.1; Win64; x64) AppleWebKit/537.36 (KHTML, like Gecko) Chrome/87.0.4280.66 Safari/537.36" etag="YSMs7Myt_XSa0RuA2XKo" version="13.10.1" type="github">
  <diagram id="1R9pqmuIDQbFG5ekNz2X" name="Page-1">
    <mxGraphModel dx="967" dy="1619" grid="1" gridSize="10" guides="1" tooltips="1" connect="1" arrows="1" fold="1" page="1" pageScale="1" pageWidth="827" pageHeight="1169" math="0" shadow="0">
      <root>
        <mxCell id="0" />
        <mxCell id="1" parent="0" />
        <mxCell id="AeCEf1UCao7Z_vWgHj9i-1" value="CarTransporter" style="swimlane;fontStyle=1;align=center;verticalAlign=top;childLayout=stackLayout;horizontal=1;startSize=28;horizontalStack=0;resizeParent=1;resizeParentMax=0;resizeLast=0;collapsible=1;marginBottom=0;strokeColor=#000000;fillColor=none;" parent="1" vertex="1">
          <mxGeometry x="1720" y="932" width="360" height="570" as="geometry" />
        </mxCell>
        <mxCell id="AeCEf1UCao7Z_vWgHj9i-3" value="- ramp : Ramp&#xa;" style="text;strokeColor=none;fillColor=none;align=left;verticalAlign=top;spacingLeft=4;spacingRight=4;overflow=hidden;rotatable=0;points=[[0,0.5],[1,0.5]];portConstraint=eastwest;fontStyle=0" parent="AeCEf1UCao7Z_vWgHj9i-1" vertex="1">
          <mxGeometry y="28" width="360" height="26" as="geometry" />
        </mxCell>
        <mxCell id="AeCEf1UCao7Z_vWgHj9i-4" value="- maxSize: int" style="text;strokeColor=none;fillColor=none;align=left;verticalAlign=top;spacingLeft=4;spacingRight=4;overflow=hidden;rotatable=0;points=[[0,0.5],[1,0.5]];portConstraint=eastwest;" parent="AeCEf1UCao7Z_vWgHj9i-1" vertex="1">
          <mxGeometry y="54" width="360" height="26" as="geometry" />
        </mxCell>
        <mxCell id="AeCEf1UCao7Z_vWgHj9i-5" value="- cars: ArrayList&lt;C&gt;" style="text;strokeColor=none;fillColor=none;align=left;verticalAlign=top;spacingLeft=4;spacingRight=4;overflow=hidden;rotatable=0;points=[[0,0.5],[1,0.5]];portConstraint=eastwest;" parent="AeCEf1UCao7Z_vWgHj9i-1" vertex="1">
          <mxGeometry y="80" width="360" height="26" as="geometry" />
        </mxCell>
        <mxCell id="AeCEf1UCao7Z_vWgHj9i-6" value="" style="line;strokeWidth=1;fillColor=none;align=left;verticalAlign=middle;spacingTop=-1;spacingLeft=3;spacingRight=3;rotatable=0;labelPosition=right;points=[];portConstraint=eastwest;" parent="AeCEf1UCao7Z_vWgHj9i-1" vertex="1">
          <mxGeometry y="106" width="360" height="8" as="geometry" />
        </mxCell>
        <mxCell id="AeCEf1UCao7Z_vWgHj9i-7" value="+ CarTransporter(.....)" style="text;strokeColor=none;fillColor=none;align=left;verticalAlign=top;spacingLeft=4;spacingRight=4;overflow=hidden;rotatable=0;points=[[0,0.5],[1,0.5]];portConstraint=eastwest;" parent="AeCEf1UCao7Z_vWgHj9i-1" vertex="1">
          <mxGeometry y="114" width="360" height="26" as="geometry" />
        </mxCell>
        <mxCell id="AeCEf1UCao7Z_vWgHj9i-8" value="+ raiseRamp(): void" style="text;strokeColor=none;fillColor=none;align=left;verticalAlign=top;spacingLeft=4;spacingRight=4;overflow=hidden;rotatable=0;points=[[0,0.5],[1,0.5]];portConstraint=eastwest;" parent="AeCEf1UCao7Z_vWgHj9i-1" vertex="1">
          <mxGeometry y="140" width="360" height="24" as="geometry" />
        </mxCell>
        <mxCell id="AeCEf1UCao7Z_vWgHj9i-9" value="+ lowerRamp(): void" style="text;strokeColor=none;fillColor=none;align=left;verticalAlign=top;spacingLeft=4;spacingRight=4;overflow=hidden;rotatable=0;points=[[0,0.5],[1,0.5]];portConstraint=eastwest;" parent="AeCEf1UCao7Z_vWgHj9i-1" vertex="1">
          <mxGeometry y="164" width="360" height="26" as="geometry" />
        </mxCell>
        <mxCell id="AeCEf1UCao7Z_vWgHj9i-10" value="+ isRampRaised(): boolean" style="text;strokeColor=none;fillColor=none;align=left;verticalAlign=top;spacingLeft=4;spacingRight=4;overflow=hidden;rotatable=0;points=[[0,0.5],[1,0.5]];portConstraint=eastwest;" parent="AeCEf1UCao7Z_vWgHj9i-1" vertex="1">
          <mxGeometry y="190" width="360" height="26" as="geometry" />
        </mxCell>
        <mxCell id="AeCEf1UCao7Z_vWgHj9i-113" value="+ getCars(): List&lt;Car&gt;" style="text;strokeColor=none;fillColor=none;align=left;verticalAlign=top;spacingLeft=4;spacingRight=4;overflow=hidden;rotatable=0;points=[[0,0.5],[1,0.5]];portConstraint=eastwest;shadow=1;" parent="AeCEf1UCao7Z_vWgHj9i-1" vertex="1">
          <mxGeometry y="216" width="360" height="26" as="geometry" />
        </mxCell>
        <mxCell id="AeCEf1UCao7Z_vWgHj9i-14" value="+ isCarCloseEnough(c : Car): boolean" style="text;strokeColor=none;fillColor=none;align=left;verticalAlign=top;spacingLeft=4;spacingRight=4;overflow=hidden;rotatable=0;points=[[0,0.5],[1,0.5]];portConstraint=eastwest;" parent="AeCEf1UCao7Z_vWgHj9i-1" vertex="1">
          <mxGeometry y="242" width="360" height="26" as="geometry" />
        </mxCell>
        <mxCell id="AeCEf1UCao7Z_vWgHj9i-11" value="+ isStationary(): boolean " style="text;strokeColor=none;fillColor=none;align=left;verticalAlign=top;spacingLeft=4;spacingRight=4;overflow=hidden;rotatable=0;points=[[0,0.5],[1,0.5]];portConstraint=eastwest;" parent="AeCEf1UCao7Z_vWgHj9i-1" vertex="1">
          <mxGeometry y="268" width="360" height="26" as="geometry" />
        </mxCell>
        <mxCell id="AeCEf1UCao7Z_vWgHj9i-114" value="+ isCarStationary(car : Car): boolean " style="text;strokeColor=none;fillColor=none;align=left;verticalAlign=top;spacingLeft=4;spacingRight=4;overflow=hidden;rotatable=0;points=[[0,0.5],[1,0.5]];portConstraint=eastwest;" parent="AeCEf1UCao7Z_vWgHj9i-1" vertex="1">
          <mxGeometry y="294" width="360" height="26" as="geometry" />
        </mxCell>
        <mxCell id="AeCEf1UCao7Z_vWgHj9i-12" value="+ loadCar(car : Car): void " style="text;strokeColor=none;fillColor=none;align=left;verticalAlign=top;spacingLeft=4;spacingRight=4;overflow=hidden;rotatable=0;points=[[0,0.5],[1,0.5]];portConstraint=eastwest;" parent="AeCEf1UCao7Z_vWgHj9i-1" vertex="1">
          <mxGeometry y="320" width="360" height="26" as="geometry" />
        </mxCell>
        <mxCell id="AeCEf1UCao7Z_vWgHj9i-13" value="&lt;span style=&quot;color: rgb(0 , 0 , 0) ; font-family: &amp;#34;helvetica&amp;#34; ; font-size: 12px ; font-style: normal ; font-weight: 400 ; letter-spacing: normal ; text-align: left ; text-indent: 0px ; text-transform: none ; word-spacing: 0px ; background-color: rgb(248 , 249 , 250) ; display: inline ; float: none&quot;&gt;&amp;nbsp;+ unloadCar(): void&amp;nbsp;&lt;/span&gt;" style="text;whiteSpace=wrap;html=1;fillColor=none;" parent="AeCEf1UCao7Z_vWgHj9i-1" vertex="1">
          <mxGeometry y="346" width="360" height="30" as="geometry" />
        </mxCell>
        <mxCell id="AeCEf1UCao7Z_vWgHj9i-116" value="+ lastLoadedIndex(): int" style="text;strokeColor=none;fillColor=none;align=left;verticalAlign=top;spacingLeft=4;spacingRight=4;overflow=hidden;rotatable=0;points=[[0,0.5],[1,0.5]];portConstraint=eastwest;shadow=1;" parent="AeCEf1UCao7Z_vWgHj9i-1" vertex="1">
          <mxGeometry y="376" width="360" height="26" as="geometry" />
        </mxCell>
        <mxCell id="AeCEf1UCao7Z_vWgHj9i-117" value="&lt;span style=&quot;color: rgb(0 , 0 , 0) ; font-family: &amp;#34;helvetica&amp;#34; ; font-size: 12px ; font-style: normal ; font-weight: 400 ; letter-spacing: normal ; text-align: left ; text-indent: 0px ; text-transform: none ; word-spacing: 0px ; background-color: rgb(248 , 249 , 250) ; display: inline ; float: none&quot;&gt;&amp;nbsp;+ canLoadCar(car : Car): boolean&lt;/span&gt;" style="text;whiteSpace=wrap;html=1;fillColor=none;" parent="AeCEf1UCao7Z_vWgHj9i-1" vertex="1">
          <mxGeometry y="402" width="360" height="30" as="geometry" />
        </mxCell>
        <mxCell id="AeCEf1UCao7Z_vWgHj9i-118" value="&lt;span style=&quot;color: rgb(0 , 0 , 0) ; font-family: &amp;#34;helvetica&amp;#34; ; font-size: 12px ; font-style: normal ; font-weight: 400 ; letter-spacing: normal ; text-align: left ; text-indent: 0px ; text-transform: none ; word-spacing: 0px ; background-color: rgb(248 , 249 , 250) ; display: inline ; float: none&quot;&gt;&amp;nbsp;+ canUnloadCar(): boolean&amp;nbsp;&lt;/span&gt;" style="text;whiteSpace=wrap;html=1;fillColor=none;" parent="AeCEf1UCao7Z_vWgHj9i-1" vertex="1">
          <mxGeometry y="432" width="360" height="30" as="geometry" />
        </mxCell>
        <mxCell id="AeCEf1UCao7Z_vWgHj9i-15" value="&lt;span style=&quot;color: rgb(0 , 0 , 0) ; font-family: &amp;#34;helvetica&amp;#34; ; font-size: 12px ; font-style: normal ; font-weight: 400 ; letter-spacing: normal ; text-align: left ; text-indent: 0px ; text-transform: none ; word-spacing: 0px ; background-color: rgb(248 , 249 , 250) ; display: inline ; float: none&quot;&gt;&amp;nbsp;+ canLoadOrUnloadCar(): boolean&amp;nbsp;&lt;/span&gt;" style="text;whiteSpace=wrap;html=1;fillColor=none;" parent="AeCEf1UCao7Z_vWgHj9i-1" vertex="1">
          <mxGeometry y="462" width="360" height="30" as="geometry" />
        </mxCell>
        <mxCell id="AeCEf1UCao7Z_vWgHj9i-16" value="+ speedFactor(): double" style="text;strokeColor=none;fillColor=none;align=left;verticalAlign=top;spacingLeft=4;spacingRight=4;overflow=hidden;rotatable=0;points=[[0,0.5],[1,0.5]];portConstraint=eastwest;" parent="AeCEf1UCao7Z_vWgHj9i-1" vertex="1">
          <mxGeometry y="492" width="360" height="26" as="geometry" />
        </mxCell>
        <mxCell id="AeCEf1UCao7Z_vWgHj9i-17" value="+ carsToString(): String" style="text;strokeColor=none;fillColor=none;align=left;verticalAlign=top;spacingLeft=4;spacingRight=4;overflow=hidden;rotatable=0;points=[[0,0.5],[1,0.5]];portConstraint=eastwest;" parent="AeCEf1UCao7Z_vWgHj9i-1" vertex="1">
          <mxGeometry y="518" width="360" height="26" as="geometry" />
        </mxCell>
        <mxCell id="AeCEf1UCao7Z_vWgHj9i-119" value="+ move(): void" style="text;strokeColor=none;fillColor=none;align=left;verticalAlign=top;spacingLeft=4;spacingRight=4;overflow=hidden;rotatable=0;points=[[0,0.5],[1,0.5]];portConstraint=eastwest;" parent="AeCEf1UCao7Z_vWgHj9i-1" vertex="1">
          <mxGeometry y="544" width="360" height="26" as="geometry" />
        </mxCell>
        <mxCell id="AeCEf1UCao7Z_vWgHj9i-18" value="Movable&#xa;&lt;&lt;interface&gt;&gt;" style="swimlane;fontStyle=1;childLayout=stackLayout;horizontal=1;startSize=40;fillColor=none;horizontalStack=0;resizeParent=1;resizeParentMax=0;resizeLast=0;collapsible=1;marginBottom=0;" parent="1" vertex="1">
          <mxGeometry x="560" y="-240" width="160" height="118" as="geometry" />
        </mxCell>
        <mxCell id="AeCEf1UCao7Z_vWgHj9i-19" value="+ move() : void" style="text;strokeColor=none;fillColor=none;align=left;verticalAlign=top;spacingLeft=4;spacingRight=4;overflow=hidden;rotatable=0;points=[[0,0.5],[1,0.5]];portConstraint=eastwest;" parent="AeCEf1UCao7Z_vWgHj9i-18" vertex="1">
          <mxGeometry y="40" width="160" height="26" as="geometry" />
        </mxCell>
        <mxCell id="AeCEf1UCao7Z_vWgHj9i-20" value="+ turnLeft() : void" style="text;strokeColor=none;fillColor=none;align=left;verticalAlign=top;spacingLeft=4;spacingRight=4;overflow=hidden;rotatable=0;points=[[0,0.5],[1,0.5]];portConstraint=eastwest;" parent="AeCEf1UCao7Z_vWgHj9i-18" vertex="1">
          <mxGeometry y="66" width="160" height="26" as="geometry" />
        </mxCell>
        <mxCell id="AeCEf1UCao7Z_vWgHj9i-21" value="+ turnRight() : void" style="text;strokeColor=none;fillColor=none;align=left;verticalAlign=top;spacingLeft=4;spacingRight=4;overflow=hidden;rotatable=0;points=[[0,0.5],[1,0.5]];portConstraint=eastwest;" parent="AeCEf1UCao7Z_vWgHj9i-18" vertex="1">
          <mxGeometry y="92" width="160" height="26" as="geometry" />
        </mxCell>
        <mxCell id="AeCEf1UCao7Z_vWgHj9i-22" value="Vehicle&#xa;{abstract}&#xa;" style="swimlane;fontStyle=1;align=center;verticalAlign=top;childLayout=stackLayout;horizontal=1;startSize=40;horizontalStack=0;resizeParent=1;resizeParentMax=0;resizeLast=0;collapsible=1;marginBottom=0;" parent="1" vertex="1">
          <mxGeometry x="480" y="-60" width="320" height="596" as="geometry" />
        </mxCell>
        <mxCell id="AeCEf1UCao7Z_vWgHj9i-23" value="&lt;&lt;get/set&gt;&gt; - x : double" style="text;strokeColor=none;fillColor=none;align=left;verticalAlign=top;spacingLeft=4;spacingRight=4;overflow=hidden;rotatable=0;points=[[0,0.5],[1,0.5]];portConstraint=eastwest;" parent="AeCEf1UCao7Z_vWgHj9i-22" vertex="1">
          <mxGeometry y="40" width="320" height="26" as="geometry" />
        </mxCell>
        <mxCell id="AeCEf1UCao7Z_vWgHj9i-24" value="&lt;&lt;get/set&gt;&gt; - y : double" style="text;strokeColor=none;fillColor=none;align=left;verticalAlign=top;spacingLeft=4;spacingRight=4;overflow=hidden;rotatable=0;points=[[0,0.5],[1,0.5]];portConstraint=eastwest;" parent="AeCEf1UCao7Z_vWgHj9i-22" vertex="1">
          <mxGeometry y="66" width="320" height="26" as="geometry" />
        </mxCell>
        <mxCell id="AeCEf1UCao7Z_vWgHj9i-25" value="&lt;&lt;get/set&gt;&gt; - nrDoors : int" style="text;strokeColor=none;fillColor=none;align=left;verticalAlign=top;spacingLeft=4;spacingRight=4;overflow=hidden;rotatable=0;points=[[0,0.5],[1,0.5]];portConstraint=eastwest;" parent="AeCEf1UCao7Z_vWgHj9i-22" vertex="1">
          <mxGeometry y="92" width="320" height="26" as="geometry" />
        </mxCell>
        <mxCell id="AeCEf1UCao7Z_vWgHj9i-26" value="&lt;&lt;get/set&gt;&gt; - enginePower : double" style="text;strokeColor=none;fillColor=none;align=left;verticalAlign=top;spacingLeft=4;spacingRight=4;overflow=hidden;rotatable=0;points=[[0,0.5],[1,0.5]];portConstraint=eastwest;" parent="AeCEf1UCao7Z_vWgHj9i-22" vertex="1">
          <mxGeometry y="118" width="320" height="26" as="geometry" />
        </mxCell>
        <mxCell id="AeCEf1UCao7Z_vWgHj9i-27" value="&lt;&lt;get / -set&gt;&gt; - currentSpeed : double" style="text;strokeColor=none;fillColor=none;align=left;verticalAlign=top;spacingLeft=4;spacingRight=4;overflow=hidden;rotatable=0;points=[[0,0.5],[1,0.5]];portConstraint=eastwest;" parent="AeCEf1UCao7Z_vWgHj9i-22" vertex="1">
          <mxGeometry y="144" width="320" height="26" as="geometry" />
        </mxCell>
        <mxCell id="AeCEf1UCao7Z_vWgHj9i-28" value="&lt;&lt;get/set&gt;&gt; - color : Color" style="text;strokeColor=none;fillColor=none;align=left;verticalAlign=top;spacingLeft=4;spacingRight=4;overflow=hidden;rotatable=0;points=[[0,0.5],[1,0.5]];portConstraint=eastwest;" parent="AeCEf1UCao7Z_vWgHj9i-22" vertex="1">
          <mxGeometry y="170" width="320" height="26" as="geometry" />
        </mxCell>
        <mxCell id="AeCEf1UCao7Z_vWgHj9i-29" value="&lt;&lt;get/set&gt;&gt; - modelName : String" style="text;strokeColor=none;fillColor=none;align=left;verticalAlign=top;spacingLeft=4;spacingRight=4;overflow=hidden;rotatable=0;points=[[0,0.5],[1,0.5]];portConstraint=eastwest;" parent="AeCEf1UCao7Z_vWgHj9i-22" vertex="1">
          <mxGeometry y="196" width="320" height="26" as="geometry" />
        </mxCell>
        <mxCell id="yBkD2uAlPnw_lQSOTUZA-1" value="&lt;&lt;get / -set&gt;&gt; - directionAngle : int" style="text;strokeColor=none;fillColor=none;align=left;verticalAlign=top;spacingLeft=4;spacingRight=4;overflow=hidden;rotatable=0;points=[[0,0.5],[1,0.5]];portConstraint=eastwest;" parent="AeCEf1UCao7Z_vWgHj9i-22" vertex="1">
          <mxGeometry y="222" width="320" height="26" as="geometry" />
        </mxCell>
        <mxCell id="AeCEf1UCao7Z_vWgHj9i-30" value="" style="line;strokeWidth=1;fillColor=none;align=left;verticalAlign=middle;spacingTop=-1;spacingLeft=3;spacingRight=3;rotatable=0;labelPosition=right;points=[];portConstraint=eastwest;" parent="AeCEf1UCao7Z_vWgHj9i-22" vertex="1">
          <mxGeometry y="248" width="320" height="8" as="geometry" />
        </mxCell>
        <mxCell id="AeCEf1UCao7Z_vWgHj9i-31" value="+ Vehicle(x : double, y : double, nrDoors : int, &#xa;       enginePower : double, currentSpeed : double,&#xa;       color : Color, modelName : String, directionAngle : int)" style="text;strokeColor=none;fillColor=none;align=left;verticalAlign=top;spacingLeft=4;spacingRight=4;overflow=hidden;rotatable=0;points=[[0,0.5],[1,0.5]];portConstraint=eastwest;" parent="AeCEf1UCao7Z_vWgHj9i-22" vertex="1">
          <mxGeometry y="256" width="320" height="54" as="geometry" />
        </mxCell>
        <mxCell id="AeCEf1UCao7Z_vWgHj9i-32" value="+ startEngine(): void" style="text;strokeColor=none;fillColor=none;align=left;verticalAlign=top;spacingLeft=4;spacingRight=4;overflow=hidden;rotatable=0;points=[[0,0.5],[1,0.5]];portConstraint=eastwest;" parent="AeCEf1UCao7Z_vWgHj9i-22" vertex="1">
          <mxGeometry y="310" width="320" height="26" as="geometry" />
        </mxCell>
        <mxCell id="AeCEf1UCao7Z_vWgHj9i-33" value="+ stopEngine(): void" style="text;strokeColor=none;fillColor=none;align=left;verticalAlign=top;spacingLeft=4;spacingRight=4;overflow=hidden;rotatable=0;points=[[0,0.5],[1,0.5]];portConstraint=eastwest;" parent="AeCEf1UCao7Z_vWgHj9i-22" vertex="1">
          <mxGeometry y="336" width="320" height="26" as="geometry" />
        </mxCell>
        <mxCell id="AeCEf1UCao7Z_vWgHj9i-34" value="+ move() : void" style="text;strokeColor=none;fillColor=none;align=left;verticalAlign=top;spacingLeft=4;spacingRight=4;overflow=hidden;rotatable=0;points=[[0,0.5],[1,0.5]];portConstraint=eastwest;" parent="AeCEf1UCao7Z_vWgHj9i-22" vertex="1">
          <mxGeometry y="362" width="320" height="26" as="geometry" />
        </mxCell>
        <mxCell id="AeCEf1UCao7Z_vWgHj9i-35" value="+ turnLeft(angle : int) : void" style="text;strokeColor=none;fillColor=none;align=left;verticalAlign=top;spacingLeft=4;spacingRight=4;overflow=hidden;rotatable=0;points=[[0,0.5],[1,0.5]];portConstraint=eastwest;" parent="AeCEf1UCao7Z_vWgHj9i-22" vertex="1">
          <mxGeometry y="388" width="320" height="26" as="geometry" />
        </mxCell>
        <mxCell id="AeCEf1UCao7Z_vWgHj9i-36" value="+ turnRight(angle : int) : void" style="text;strokeColor=none;fillColor=none;align=left;verticalAlign=top;spacingLeft=4;spacingRight=4;overflow=hidden;rotatable=0;points=[[0,0.5],[1,0.5]];portConstraint=eastwest;" parent="AeCEf1UCao7Z_vWgHj9i-22" vertex="1">
          <mxGeometry y="414" width="320" height="26" as="geometry" />
        </mxCell>
        <mxCell id="AeCEf1UCao7Z_vWgHj9i-37" value="+ toString() : String" style="text;strokeColor=none;fillColor=none;align=left;verticalAlign=top;spacingLeft=4;spacingRight=4;overflow=hidden;rotatable=0;points=[[0,0.5],[1,0.5]];portConstraint=eastwest;" parent="AeCEf1UCao7Z_vWgHj9i-22" vertex="1">
          <mxGeometry y="440" width="320" height="26" as="geometry" />
        </mxCell>
        <mxCell id="AeCEf1UCao7Z_vWgHj9i-38" value="&lt;&lt;abstract&gt;&gt; + speedFactor(): double" style="text;strokeColor=none;fillColor=none;align=left;verticalAlign=top;spacingLeft=4;spacingRight=4;overflow=hidden;rotatable=0;points=[[0,0.5],[1,0.5]];portConstraint=eastwest;" parent="AeCEf1UCao7Z_vWgHj9i-22" vertex="1">
          <mxGeometry y="466" width="320" height="26" as="geometry" />
        </mxCell>
        <mxCell id="AeCEf1UCao7Z_vWgHj9i-39" value="+ incrementSpeed(amount : double): void" style="text;strokeColor=none;fillColor=none;align=left;verticalAlign=top;spacingLeft=4;spacingRight=4;overflow=hidden;rotatable=0;points=[[0,0.5],[1,0.5]];portConstraint=eastwest;" parent="AeCEf1UCao7Z_vWgHj9i-22" vertex="1">
          <mxGeometry y="492" width="320" height="26" as="geometry" />
        </mxCell>
        <mxCell id="AeCEf1UCao7Z_vWgHj9i-40" value="- decrementSpeed(amount : double): void" style="text;strokeColor=none;fillColor=none;align=left;verticalAlign=top;spacingLeft=4;spacingRight=4;overflow=hidden;rotatable=0;points=[[0,0.5],[1,0.5]];portConstraint=eastwest;" parent="AeCEf1UCao7Z_vWgHj9i-22" vertex="1">
          <mxGeometry y="518" width="320" height="26" as="geometry" />
        </mxCell>
        <mxCell id="AeCEf1UCao7Z_vWgHj9i-41" value="+ gas(amount : double): void" style="text;strokeColor=none;fillColor=none;align=left;verticalAlign=top;spacingLeft=4;spacingRight=4;overflow=hidden;rotatable=0;points=[[0,0.5],[1,0.5]];portConstraint=eastwest;" parent="AeCEf1UCao7Z_vWgHj9i-22" vertex="1">
          <mxGeometry y="544" width="320" height="26" as="geometry" />
        </mxCell>
        <mxCell id="AeCEf1UCao7Z_vWgHj9i-42" value="+ brake(amount : double): void" style="text;strokeColor=none;fillColor=none;align=left;verticalAlign=top;spacingLeft=4;spacingRight=4;overflow=hidden;rotatable=0;points=[[0,0.5],[1,0.5]];portConstraint=eastwest;" parent="AeCEf1UCao7Z_vWgHj9i-22" vertex="1">
          <mxGeometry y="570" width="320" height="26" as="geometry" />
        </mxCell>
        <mxCell id="AeCEf1UCao7Z_vWgHj9i-43" value="" style="endArrow=block;dashed=1;endFill=0;endSize=12;html=1;entryX=0.5;entryY=1.038;entryDx=0;entryDy=0;entryPerimeter=0;" parent="1" source="AeCEf1UCao7Z_vWgHj9i-22" target="AeCEf1UCao7Z_vWgHj9i-21" edge="1">
          <mxGeometry width="160" relative="1" as="geometry">
            <mxPoint x="820" y="300" as="sourcePoint" />
            <mxPoint x="980" y="300" as="targetPoint" />
          </mxGeometry>
        </mxCell>
        <mxCell id="AeCEf1UCao7Z_vWgHj9i-52" value="Volvo240" style="swimlane;fontStyle=1;align=center;verticalAlign=top;childLayout=stackLayout;horizontal=1;startSize=26;horizontalStack=0;resizeParent=1;resizeParentMax=0;resizeLast=0;collapsible=1;marginBottom=0;" parent="1" vertex="1">
          <mxGeometry y="760" width="270" height="146" as="geometry" />
        </mxCell>
        <mxCell id="AeCEf1UCao7Z_vWgHj9i-53" value="&lt;&lt;final&gt;&gt; - trimFactor : double " style="text;strokeColor=none;fillColor=none;align=left;verticalAlign=top;spacingLeft=4;spacingRight=4;overflow=hidden;rotatable=0;points=[[0,0.5],[1,0.5]];portConstraint=eastwest;fontStyle=4" parent="AeCEf1UCao7Z_vWgHj9i-52" vertex="1">
          <mxGeometry y="26" width="270" height="26" as="geometry" />
        </mxCell>
        <mxCell id="AeCEf1UCao7Z_vWgHj9i-54" value="" style="line;strokeWidth=1;fillColor=none;align=left;verticalAlign=middle;spacingTop=-1;spacingLeft=3;spacingRight=3;rotatable=0;labelPosition=right;points=[];portConstraint=eastwest;" parent="AeCEf1UCao7Z_vWgHj9i-52" vertex="1">
          <mxGeometry y="52" width="270" height="8" as="geometry" />
        </mxCell>
        <mxCell id="AeCEf1UCao7Z_vWgHj9i-55" value="+ Volvo240(nrDoors : int, enginePower : double, &#xa;                   currentSpeed : double, color : Color, &#xa;                   modelName : String)" style="text;strokeColor=none;fillColor=none;align=left;verticalAlign=top;spacingLeft=4;spacingRight=4;overflow=hidden;rotatable=0;points=[[0,0.5],[1,0.5]];portConstraint=eastwest;" parent="AeCEf1UCao7Z_vWgHj9i-52" vertex="1">
          <mxGeometry y="60" width="270" height="60" as="geometry" />
        </mxCell>
        <mxCell id="AeCEf1UCao7Z_vWgHj9i-56" value="+ speedFactor(): double" style="text;strokeColor=none;fillColor=none;align=left;verticalAlign=top;spacingLeft=4;spacingRight=4;overflow=hidden;rotatable=0;points=[[0,0.5],[1,0.5]];portConstraint=eastwest;" parent="AeCEf1UCao7Z_vWgHj9i-52" vertex="1">
          <mxGeometry y="120" width="270" height="26" as="geometry" />
        </mxCell>
        <mxCell id="AeCEf1UCao7Z_vWgHj9i-57" value="Extends" style="endArrow=block;endSize=16;endFill=0;html=1;exitX=0.5;exitY=0;exitDx=0;exitDy=0;entryX=0.5;entryY=1;entryDx=0;entryDy=0;" parent="1" source="AeCEf1UCao7Z_vWgHj9i-52" target="AeCEf1UCao7Z_vWgHj9i-60" edge="1">
          <mxGeometry width="160" relative="1" as="geometry">
            <mxPoint x="440" y="850" as="sourcePoint" />
            <mxPoint x="240.31999999999994" y="671.8560000000002" as="targetPoint" />
          </mxGeometry>
        </mxCell>
        <mxCell id="AeCEf1UCao7Z_vWgHj9i-58" value="Extends" style="endArrow=block;endSize=16;endFill=0;html=1;exitX=0.5;exitY=0;exitDx=0;exitDy=0;entryX=0.5;entryY=1;entryDx=0;entryDy=0;" parent="1" source="w_uHxVpiJhdYi6DjlOEM-18" target="AeCEf1UCao7Z_vWgHj9i-60" edge="1">
          <mxGeometry width="160" relative="1" as="geometry">
            <mxPoint x="220" y="880" as="sourcePoint" />
            <mxPoint x="240.96000000000004" y="673.0799999999999" as="targetPoint" />
          </mxGeometry>
        </mxCell>
        <mxCell id="AeCEf1UCao7Z_vWgHj9i-59" value="Extends" style="endArrow=block;endSize=16;endFill=0;html=1;exitX=0.5;exitY=0;exitDx=0;exitDy=0;entryX=0.5;entryY=1;entryDx=0;entryDy=0;" parent="1" source="AeCEf1UCao7Z_vWgHj9i-92" target="AeCEf1UCao7Z_vWgHj9i-61" edge="1">
          <mxGeometry width="160" relative="1" as="geometry">
            <mxPoint x="400" y="930" as="sourcePoint" />
            <mxPoint x="910.9599999999998" y="717.172" as="targetPoint" />
          </mxGeometry>
        </mxCell>
        <mxCell id="AeCEf1UCao7Z_vWgHj9i-60" value="Car&#xa;{abstract}" style="swimlane;fontStyle=1;align=center;verticalAlign=top;childLayout=stackLayout;horizontal=1;startSize=40;horizontalStack=0;resizeParent=1;resizeParentMax=0;resizeLast=0;collapsible=1;marginBottom=0;" parent="1" vertex="1">
          <mxGeometry x="90" y="561" width="340" height="94" as="geometry" />
        </mxCell>
        <mxCell id="w_uHxVpiJhdYi6DjlOEM-1" value="+ Car(x : double, y : double, nrDoors : int, &#xa;       enginePower : double, currentSpeed : double,&#xa;       color : Color, modelName : String, directionAngle : int)" style="text;strokeColor=none;fillColor=none;align=left;verticalAlign=top;spacingLeft=4;spacingRight=4;overflow=hidden;rotatable=0;points=[[0,0.5],[1,0.5]];portConstraint=eastwest;" vertex="1" parent="AeCEf1UCao7Z_vWgHj9i-60">
          <mxGeometry y="40" width="340" height="54" as="geometry" />
        </mxCell>
        <mxCell id="AeCEf1UCao7Z_vWgHj9i-61" value="Truck&#xa;{abstract}" style="swimlane;fontStyle=1;align=center;verticalAlign=top;childLayout=stackLayout;horizontal=1;startSize=40;horizontalStack=0;resizeParent=1;resizeParentMax=0;resizeLast=0;collapsible=1;marginBottom=0;" parent="1" vertex="1">
          <mxGeometry x="1260" y="640" width="320" height="128" as="geometry" />
        </mxCell>
        <mxCell id="w_uHxVpiJhdYi6DjlOEM-28" value="- ramp : Ramp&#xa;" style="text;strokeColor=none;fillColor=none;align=left;verticalAlign=top;spacingLeft=4;spacingRight=4;overflow=hidden;rotatable=0;points=[[0,0.5],[1,0.5]];portConstraint=eastwest;fontStyle=0" vertex="1" parent="AeCEf1UCao7Z_vWgHj9i-61">
          <mxGeometry y="40" width="320" height="26" as="geometry" />
        </mxCell>
        <mxCell id="w_uHxVpiJhdYi6DjlOEM-29" value="" style="line;strokeWidth=1;fillColor=none;align=left;verticalAlign=middle;spacingTop=-1;spacingLeft=3;spacingRight=3;rotatable=0;labelPosition=right;points=[];portConstraint=eastwest;" vertex="1" parent="AeCEf1UCao7Z_vWgHj9i-61">
          <mxGeometry y="66" width="320" height="8" as="geometry" />
        </mxCell>
        <mxCell id="w_uHxVpiJhdYi6DjlOEM-27" value="+ Truck(x : double, y : double, nrDoors : int, &#xa;       enginePower : double, currentSpeed : double,&#xa;       color : Color, modelName : String, directionAngle : int)" style="text;strokeColor=none;fillColor=none;align=left;verticalAlign=top;spacingLeft=4;spacingRight=4;overflow=hidden;rotatable=0;points=[[0,0.5],[1,0.5]];portConstraint=eastwest;" vertex="1" parent="AeCEf1UCao7Z_vWgHj9i-61">
          <mxGeometry y="74" width="320" height="54" as="geometry" />
        </mxCell>
        <mxCell id="AeCEf1UCao7Z_vWgHj9i-62" value="Extends" style="endArrow=block;endSize=16;endFill=0;html=1;exitX=0.5;exitY=0;exitDx=0;exitDy=0;entryX=0.498;entryY=1.164;entryDx=0;entryDy=0;entryPerimeter=0;" parent="1" source="AeCEf1UCao7Z_vWgHj9i-60" target="AeCEf1UCao7Z_vWgHj9i-42" edge="1">
          <mxGeometry width="160" relative="1" as="geometry">
            <mxPoint x="490" y="620" as="sourcePoint" />
            <mxPoint x="580" y="520" as="targetPoint" />
          </mxGeometry>
        </mxCell>
        <mxCell id="AeCEf1UCao7Z_vWgHj9i-63" value="Extends" style="endArrow=block;endSize=16;endFill=0;html=1;exitX=0.5;exitY=0;exitDx=0;exitDy=0;entryX=0.494;entryY=1.123;entryDx=0;entryDy=0;entryPerimeter=0;" parent="1" source="AeCEf1UCao7Z_vWgHj9i-61" target="AeCEf1UCao7Z_vWgHj9i-42" edge="1">
          <mxGeometry width="160" relative="1" as="geometry">
            <mxPoint x="490" y="620" as="sourcePoint" />
            <mxPoint x="650" y="620" as="targetPoint" />
          </mxGeometry>
        </mxCell>
        <mxCell id="AeCEf1UCao7Z_vWgHj9i-92" value="Scania" style="swimlane;fontStyle=1;align=center;verticalAlign=top;childLayout=stackLayout;horizontal=1;startSize=28;horizontalStack=0;resizeParent=1;resizeParentMax=0;resizeLast=0;collapsible=1;marginBottom=0;" parent="1" vertex="1">
          <mxGeometry x="1080" y="932" width="240" height="296" as="geometry" />
        </mxCell>
        <mxCell id="w_uHxVpiJhdYi6DjlOEM-43" value="- ramp : Ramp&#xa;" style="text;strokeColor=none;fillColor=none;align=left;verticalAlign=top;spacingLeft=4;spacingRight=4;overflow=hidden;rotatable=0;points=[[0,0.5],[1,0.5]];portConstraint=eastwest;fontStyle=0" vertex="1" parent="AeCEf1UCao7Z_vWgHj9i-92">
          <mxGeometry y="28" width="240" height="26" as="geometry" />
        </mxCell>
        <mxCell id="AeCEf1UCao7Z_vWgHj9i-93" value="&lt;&lt;get/set&gt;&gt; - platformAngle : int&#xa;" style="text;strokeColor=none;fillColor=none;align=left;verticalAlign=top;spacingLeft=4;spacingRight=4;overflow=hidden;rotatable=0;points=[[0,0.5],[1,0.5]];portConstraint=eastwest;fontStyle=0" parent="AeCEf1UCao7Z_vWgHj9i-92" vertex="1">
          <mxGeometry y="54" width="240" height="26" as="geometry" />
        </mxCell>
        <mxCell id="AeCEf1UCao7Z_vWgHj9i-94" value="" style="line;strokeWidth=1;fillColor=none;align=left;verticalAlign=middle;spacingTop=-1;spacingLeft=3;spacingRight=3;rotatable=0;labelPosition=right;points=[];portConstraint=eastwest;" parent="AeCEf1UCao7Z_vWgHj9i-92" vertex="1">
          <mxGeometry y="80" width="240" height="8" as="geometry" />
        </mxCell>
        <mxCell id="AeCEf1UCao7Z_vWgHj9i-95" value="+ Scania(......)" style="text;strokeColor=none;fillColor=none;align=left;verticalAlign=top;spacingLeft=4;spacingRight=4;overflow=hidden;rotatable=0;points=[[0,0.5],[1,0.5]];portConstraint=eastwest;" parent="AeCEf1UCao7Z_vWgHj9i-92" vertex="1">
          <mxGeometry y="88" width="240" height="26" as="geometry" />
        </mxCell>
        <mxCell id="AeCEf1UCao7Z_vWgHj9i-103" value="+ raisePlatformAngle(): void" style="text;strokeColor=none;fillColor=none;align=left;verticalAlign=top;spacingLeft=4;spacingRight=4;overflow=hidden;rotatable=0;points=[[0,0.5],[1,0.5]];portConstraint=eastwest;" parent="AeCEf1UCao7Z_vWgHj9i-92" vertex="1">
          <mxGeometry y="114" width="240" height="26" as="geometry" />
        </mxCell>
        <mxCell id="AeCEf1UCao7Z_vWgHj9i-105" value="+ lowerPlatformAngle(): void" style="text;strokeColor=none;fillColor=none;align=left;verticalAlign=top;spacingLeft=4;spacingRight=4;overflow=hidden;rotatable=0;points=[[0,0.5],[1,0.5]];portConstraint=eastwest;" parent="AeCEf1UCao7Z_vWgHj9i-92" vertex="1">
          <mxGeometry y="140" width="240" height="26" as="geometry" />
        </mxCell>
        <mxCell id="AeCEf1UCao7Z_vWgHj9i-106" value="+ canRaisePlatformAngle(): boolean" style="text;strokeColor=none;fillColor=none;align=left;verticalAlign=top;spacingLeft=4;spacingRight=4;overflow=hidden;rotatable=0;points=[[0,0.5],[1,0.5]];portConstraint=eastwest;" parent="AeCEf1UCao7Z_vWgHj9i-92" vertex="1">
          <mxGeometry y="166" width="240" height="26" as="geometry" />
        </mxCell>
        <mxCell id="AeCEf1UCao7Z_vWgHj9i-107" value="+ isPlatformRaised(): boolean" style="text;strokeColor=none;fillColor=none;align=left;verticalAlign=top;spacingLeft=4;spacingRight=4;overflow=hidden;rotatable=0;points=[[0,0.5],[1,0.5]];portConstraint=eastwest;" parent="AeCEf1UCao7Z_vWgHj9i-92" vertex="1">
          <mxGeometry y="192" width="240" height="26" as="geometry" />
        </mxCell>
        <mxCell id="AeCEf1UCao7Z_vWgHj9i-108" value="+ speedFactor(): double" style="text;strokeColor=none;fillColor=none;align=left;verticalAlign=top;spacingLeft=4;spacingRight=4;overflow=hidden;rotatable=0;points=[[0,0.5],[1,0.5]];portConstraint=eastwest;" parent="AeCEf1UCao7Z_vWgHj9i-92" vertex="1">
          <mxGeometry y="218" width="240" height="26" as="geometry" />
        </mxCell>
        <mxCell id="AeCEf1UCao7Z_vWgHj9i-112" value="+ gas(amount : double): void" style="text;strokeColor=none;fillColor=none;align=left;verticalAlign=top;spacingLeft=4;spacingRight=4;overflow=hidden;rotatable=0;points=[[0,0.5],[1,0.5]];portConstraint=eastwest;" parent="AeCEf1UCao7Z_vWgHj9i-92" vertex="1">
          <mxGeometry y="244" width="240" height="26" as="geometry" />
        </mxCell>
        <mxCell id="AeCEf1UCao7Z_vWgHj9i-111" value="+ startEngine(): void" style="text;strokeColor=none;fillColor=none;align=left;verticalAlign=top;spacingLeft=4;spacingRight=4;overflow=hidden;rotatable=0;points=[[0,0.5],[1,0.5]];portConstraint=eastwest;" parent="AeCEf1UCao7Z_vWgHj9i-92" vertex="1">
          <mxGeometry y="270" width="240" height="26" as="geometry" />
        </mxCell>
        <mxCell id="AeCEf1UCao7Z_vWgHj9i-65" value="CarRepairShop&#xa;&lt;C extends Car&gt;" style="swimlane;fontStyle=1;align=center;verticalAlign=top;childLayout=stackLayout;horizontal=1;startSize=40;horizontalStack=0;resizeParent=1;resizeParentMax=0;resizeLast=0;collapsible=1;marginBottom=0;strokeColor=#000000;fillColor=none;shadow=1;" parent="1" vertex="1">
          <mxGeometry x="2339" y="898" width="240" height="212" as="geometry" />
        </mxCell>
        <mxCell id="AeCEf1UCao7Z_vWgHj9i-66" value="- cars: List&lt;C&gt;" style="text;strokeColor=none;fillColor=none;align=left;verticalAlign=top;spacingLeft=4;spacingRight=4;overflow=hidden;rotatable=0;points=[[0,0.5],[1,0.5]];portConstraint=eastwest;shadow=1;" parent="AeCEf1UCao7Z_vWgHj9i-65" vertex="1">
          <mxGeometry y="40" width="240" height="26" as="geometry" />
        </mxCell>
        <mxCell id="AeCEf1UCao7Z_vWgHj9i-67" value="- maxSize: int" style="text;strokeColor=none;fillColor=none;align=left;verticalAlign=top;spacingLeft=4;spacingRight=4;overflow=hidden;rotatable=0;points=[[0,0.5],[1,0.5]];portConstraint=eastwest;shadow=1;" parent="AeCEf1UCao7Z_vWgHj9i-65" vertex="1">
          <mxGeometry y="66" width="240" height="26" as="geometry" />
        </mxCell>
        <mxCell id="AeCEf1UCao7Z_vWgHj9i-68" value="" style="line;strokeWidth=1;fillColor=none;align=left;verticalAlign=middle;spacingTop=-1;spacingLeft=3;spacingRight=3;rotatable=0;labelPosition=right;points=[];portConstraint=eastwest;shadow=1;" parent="AeCEf1UCao7Z_vWgHj9i-65" vertex="1">
          <mxGeometry y="92" width="240" height="8" as="geometry" />
        </mxCell>
        <mxCell id="AeCEf1UCao7Z_vWgHj9i-69" value="+ loadCar(item : C): void " style="text;strokeColor=none;fillColor=none;align=left;verticalAlign=top;spacingLeft=4;spacingRight=4;overflow=hidden;rotatable=0;points=[[0,0.5],[1,0.5]];portConstraint=eastwest;shadow=1;" parent="AeCEf1UCao7Z_vWgHj9i-65" vertex="1">
          <mxGeometry y="100" width="240" height="26" as="geometry" />
        </mxCell>
        <mxCell id="AeCEf1UCao7Z_vWgHj9i-70" value="&lt;span style=&quot;color: rgb(0 , 0 , 0) ; font-family: &amp;#34;helvetica&amp;#34; ; font-size: 12px ; font-style: normal ; font-weight: 400 ; letter-spacing: normal ; text-align: left ; text-indent: 0px ; text-transform: none ; word-spacing: 0px ; background-color: rgb(248 , 249 , 250) ; display: inline ; float: none&quot;&gt;&amp;nbsp;+ removeCar(): void&amp;nbsp;&lt;/span&gt;" style="text;whiteSpace=wrap;html=1;fillColor=none;shadow=1;" parent="AeCEf1UCao7Z_vWgHj9i-65" vertex="1">
          <mxGeometry y="126" width="240" height="30" as="geometry" />
        </mxCell>
        <mxCell id="AeCEf1UCao7Z_vWgHj9i-102" value="+ getCars(): List&lt;C&gt;" style="text;strokeColor=none;fillColor=none;align=left;verticalAlign=top;spacingLeft=4;spacingRight=4;overflow=hidden;rotatable=0;points=[[0,0.5],[1,0.5]];portConstraint=eastwest;shadow=1;" parent="AeCEf1UCao7Z_vWgHj9i-65" vertex="1">
          <mxGeometry y="156" width="240" height="26" as="geometry" />
        </mxCell>
        <mxCell id="AeCEf1UCao7Z_vWgHj9i-72" value="&lt;span style=&quot;color: rgb(0 , 0 , 0) ; font-family: &amp;#34;helvetica&amp;#34; ; font-size: 12px ; font-style: normal ; font-weight: 400 ; letter-spacing: normal ; text-align: left ; text-indent: 0px ; text-transform: none ; word-spacing: 0px ; background-color: rgb(248 , 249 , 250) ; display: inline ; float: none&quot;&gt;&amp;nbsp;public static void main(String[] args)&lt;/span&gt;" style="text;whiteSpace=wrap;html=1;fillColor=none;shadow=1;" parent="AeCEf1UCao7Z_vWgHj9i-65" vertex="1">
          <mxGeometry y="182" width="240" height="30" as="geometry" />
        </mxCell>
        <mxCell id="fS1m_hfCymx0pJezLY5b-1" value="Extends" style="endArrow=block;endSize=16;endFill=0;html=1;exitX=0.5;exitY=0;exitDx=0;exitDy=0;entryX=0.5;entryY=1;entryDx=0;entryDy=0;" parent="1" source="AeCEf1UCao7Z_vWgHj9i-1" target="AeCEf1UCao7Z_vWgHj9i-61" edge="1">
          <mxGeometry width="160" relative="1" as="geometry">
            <mxPoint x="1270" y="718.5" as="sourcePoint" />
            <mxPoint x="1270" y="609.5" as="targetPoint" />
          </mxGeometry>
        </mxCell>
        <mxCell id="w_uHxVpiJhdYi6DjlOEM-3" value="Turbo" style="swimlane;fontStyle=1;align=center;verticalAlign=top;childLayout=stackLayout;horizontal=1;startSize=26;horizontalStack=0;resizeParent=1;resizeParentMax=0;resizeLast=0;collapsible=1;marginBottom=0;" vertex="1" parent="1">
          <mxGeometry x="667" y="760" width="160" height="138" as="geometry" />
        </mxCell>
        <mxCell id="w_uHxVpiJhdYi6DjlOEM-4" value="- turboOn : boolean" style="text;strokeColor=none;fillColor=none;align=left;verticalAlign=top;spacingLeft=4;spacingRight=4;overflow=hidden;rotatable=0;points=[[0,0.5],[1,0.5]];portConstraint=eastwest;fontStyle=0" vertex="1" parent="w_uHxVpiJhdYi6DjlOEM-3">
          <mxGeometry y="26" width="160" height="26" as="geometry" />
        </mxCell>
        <mxCell id="w_uHxVpiJhdYi6DjlOEM-5" value="" style="line;strokeWidth=1;fillColor=none;align=left;verticalAlign=middle;spacingTop=-1;spacingLeft=3;spacingRight=3;rotatable=0;labelPosition=right;points=[];portConstraint=eastwest;" vertex="1" parent="w_uHxVpiJhdYi6DjlOEM-3">
          <mxGeometry y="52" width="160" height="8" as="geometry" />
        </mxCell>
        <mxCell id="w_uHxVpiJhdYi6DjlOEM-7" value="+ setTurboOn(): void" style="text;strokeColor=none;fillColor=none;align=left;verticalAlign=top;spacingLeft=4;spacingRight=4;overflow=hidden;rotatable=0;points=[[0,0.5],[1,0.5]];portConstraint=eastwest;" vertex="1" parent="w_uHxVpiJhdYi6DjlOEM-3">
          <mxGeometry y="60" width="160" height="26" as="geometry" />
        </mxCell>
        <mxCell id="w_uHxVpiJhdYi6DjlOEM-8" value="+ setTurboOff(): void" style="text;strokeColor=none;fillColor=none;align=left;verticalAlign=top;spacingLeft=4;spacingRight=4;overflow=hidden;rotatable=0;points=[[0,0.5],[1,0.5]];portConstraint=eastwest;" vertex="1" parent="w_uHxVpiJhdYi6DjlOEM-3">
          <mxGeometry y="86" width="160" height="26" as="geometry" />
        </mxCell>
        <mxCell id="w_uHxVpiJhdYi6DjlOEM-9" value="+ isTurboOn(): boolean" style="text;strokeColor=none;fillColor=none;align=left;verticalAlign=top;spacingLeft=4;spacingRight=4;overflow=hidden;rotatable=0;points=[[0,0.5],[1,0.5]];portConstraint=eastwest;" vertex="1" parent="w_uHxVpiJhdYi6DjlOEM-3">
          <mxGeometry y="112" width="160" height="26" as="geometry" />
        </mxCell>
        <mxCell id="w_uHxVpiJhdYi6DjlOEM-17" value="1" style="endArrow=open;html=1;endSize=12;startArrow=diamondThin;startSize=14;startFill=1;edgeStyle=orthogonalEdgeStyle;align=left;verticalAlign=bottom;entryX=0;entryY=0.5;entryDx=0;entryDy=0;" edge="1" parent="1" source="w_uHxVpiJhdYi6DjlOEM-19" target="w_uHxVpiJhdYi6DjlOEM-4">
          <mxGeometry x="-1" y="3" relative="1" as="geometry">
            <mxPoint x="530" y="740" as="sourcePoint" />
            <mxPoint x="500" y="799" as="targetPoint" />
          </mxGeometry>
        </mxCell>
        <mxCell id="w_uHxVpiJhdYi6DjlOEM-18" value="Saab95" style="swimlane;fontStyle=1;align=center;verticalAlign=top;childLayout=stackLayout;horizontal=1;startSize=26;horizontalStack=0;resizeParent=1;resizeParentMax=0;resizeLast=0;collapsible=1;marginBottom=0;" vertex="1" parent="1">
          <mxGeometry x="300" y="760" width="270" height="224" as="geometry" />
        </mxCell>
        <mxCell id="w_uHxVpiJhdYi6DjlOEM-19" value="- turbo : Turbo" style="text;strokeColor=none;fillColor=none;align=left;verticalAlign=top;spacingLeft=4;spacingRight=4;overflow=hidden;rotatable=0;points=[[0,0.5],[1,0.5]];portConstraint=eastwest;fontStyle=0" vertex="1" parent="w_uHxVpiJhdYi6DjlOEM-18">
          <mxGeometry y="26" width="270" height="26" as="geometry" />
        </mxCell>
        <mxCell id="w_uHxVpiJhdYi6DjlOEM-20" value="" style="line;strokeWidth=1;fillColor=none;align=left;verticalAlign=middle;spacingTop=-1;spacingLeft=3;spacingRight=3;rotatable=0;labelPosition=right;points=[];portConstraint=eastwest;" vertex="1" parent="w_uHxVpiJhdYi6DjlOEM-18">
          <mxGeometry y="52" width="270" height="8" as="geometry" />
        </mxCell>
        <mxCell id="w_uHxVpiJhdYi6DjlOEM-26" value="+ Saab95(nrDoors : int, enginePower : double, &#xa;                   currentSpeed : double, color : Color, &#xa;                   modelName : String)" style="text;strokeColor=none;fillColor=none;align=left;verticalAlign=top;spacingLeft=4;spacingRight=4;overflow=hidden;rotatable=0;points=[[0,0.5],[1,0.5]];portConstraint=eastwest;" vertex="1" parent="w_uHxVpiJhdYi6DjlOEM-18">
          <mxGeometry y="60" width="270" height="60" as="geometry" />
        </mxCell>
        <mxCell id="w_uHxVpiJhdYi6DjlOEM-21" value="+ setTurboOn(): void" style="text;strokeColor=none;fillColor=none;align=left;verticalAlign=top;spacingLeft=4;spacingRight=4;overflow=hidden;rotatable=0;points=[[0,0.5],[1,0.5]];portConstraint=eastwest;" vertex="1" parent="w_uHxVpiJhdYi6DjlOEM-18">
          <mxGeometry y="120" width="270" height="26" as="geometry" />
        </mxCell>
        <mxCell id="w_uHxVpiJhdYi6DjlOEM-22" value="+ setTurboOff(): void" style="text;strokeColor=none;fillColor=none;align=left;verticalAlign=top;spacingLeft=4;spacingRight=4;overflow=hidden;rotatable=0;points=[[0,0.5],[1,0.5]];portConstraint=eastwest;" vertex="1" parent="w_uHxVpiJhdYi6DjlOEM-18">
          <mxGeometry y="146" width="270" height="26" as="geometry" />
        </mxCell>
        <mxCell id="w_uHxVpiJhdYi6DjlOEM-23" value="+ isTurboOn(): boolean" style="text;strokeColor=none;fillColor=none;align=left;verticalAlign=top;spacingLeft=4;spacingRight=4;overflow=hidden;rotatable=0;points=[[0,0.5],[1,0.5]];portConstraint=eastwest;" vertex="1" parent="w_uHxVpiJhdYi6DjlOEM-18">
          <mxGeometry y="172" width="270" height="26" as="geometry" />
        </mxCell>
        <mxCell id="AeCEf1UCao7Z_vWgHj9i-51" value="+ speedFactor(): double" style="text;strokeColor=none;fillColor=none;align=left;verticalAlign=top;spacingLeft=4;spacingRight=4;overflow=hidden;rotatable=0;points=[[0,0.5],[1,0.5]];portConstraint=eastwest;" parent="w_uHxVpiJhdYi6DjlOEM-18" vertex="1">
          <mxGeometry y="198" width="270" height="26" as="geometry" />
        </mxCell>
        <mxCell id="w_uHxVpiJhdYi6DjlOEM-30" value="Ramp" style="swimlane;fontStyle=1;align=center;verticalAlign=top;childLayout=stackLayout;horizontal=1;startSize=28;horizontalStack=0;resizeParent=1;resizeParentMax=0;resizeLast=0;collapsible=1;marginBottom=0;" vertex="1" parent="1">
          <mxGeometry x="1440" y="932" width="160" height="140" as="geometry" />
        </mxCell>
        <mxCell id="w_uHxVpiJhdYi6DjlOEM-31" value="- rampUp : boolean" style="text;strokeColor=none;fillColor=none;align=left;verticalAlign=top;spacingLeft=4;spacingRight=4;overflow=hidden;rotatable=0;points=[[0,0.5],[1,0.5]];portConstraint=eastwest;fontStyle=0" vertex="1" parent="w_uHxVpiJhdYi6DjlOEM-30">
          <mxGeometry y="28" width="160" height="26" as="geometry" />
        </mxCell>
        <mxCell id="w_uHxVpiJhdYi6DjlOEM-32" value="" style="line;strokeWidth=1;fillColor=none;align=left;verticalAlign=middle;spacingTop=-1;spacingLeft=3;spacingRight=3;rotatable=0;labelPosition=right;points=[];portConstraint=eastwest;" vertex="1" parent="w_uHxVpiJhdYi6DjlOEM-30">
          <mxGeometry y="54" width="160" height="8" as="geometry" />
        </mxCell>
        <mxCell id="w_uHxVpiJhdYi6DjlOEM-34" value="+ raiseRamp(): void" style="text;strokeColor=none;fillColor=none;align=left;verticalAlign=top;spacingLeft=4;spacingRight=4;overflow=hidden;rotatable=0;points=[[0,0.5],[1,0.5]];portConstraint=eastwest;" vertex="1" parent="w_uHxVpiJhdYi6DjlOEM-30">
          <mxGeometry y="62" width="160" height="26" as="geometry" />
        </mxCell>
        <mxCell id="w_uHxVpiJhdYi6DjlOEM-35" value="+ lowerRamp(): boolean" style="text;strokeColor=none;fillColor=none;align=left;verticalAlign=top;spacingLeft=4;spacingRight=4;overflow=hidden;rotatable=0;points=[[0,0.5],[1,0.5]];portConstraint=eastwest;" vertex="1" parent="w_uHxVpiJhdYi6DjlOEM-30">
          <mxGeometry y="88" width="160" height="26" as="geometry" />
        </mxCell>
        <mxCell id="w_uHxVpiJhdYi6DjlOEM-33" value="+ isRampRaised(): boolean " style="text;strokeColor=none;fillColor=none;align=left;verticalAlign=top;spacingLeft=4;spacingRight=4;overflow=hidden;rotatable=0;points=[[0,0.5],[1,0.5]];portConstraint=eastwest;" vertex="1" parent="w_uHxVpiJhdYi6DjlOEM-30">
          <mxGeometry y="114" width="160" height="26" as="geometry" />
        </mxCell>
        <mxCell id="w_uHxVpiJhdYi6DjlOEM-45" value="1" style="endArrow=open;html=1;endSize=12;startArrow=diamondThin;startSize=14;startFill=1;edgeStyle=orthogonalEdgeStyle;align=left;verticalAlign=bottom;exitX=1;exitY=0.5;exitDx=0;exitDy=0;" edge="1" parent="1" source="w_uHxVpiJhdYi6DjlOEM-43" target="w_uHxVpiJhdYi6DjlOEM-31">
          <mxGeometry x="-1" y="3" relative="1" as="geometry">
            <mxPoint x="1190" y="1050" as="sourcePoint" />
            <mxPoint x="1350" y="1050" as="targetPoint" />
          </mxGeometry>
        </mxCell>
        <mxCell id="w_uHxVpiJhdYi6DjlOEM-47" value="1" style="endArrow=open;html=1;endSize=12;startArrow=diamondThin;startSize=14;startFill=1;edgeStyle=orthogonalEdgeStyle;align=left;verticalAlign=bottom;exitX=0;exitY=0.5;exitDx=0;exitDy=0;entryX=1;entryY=0.5;entryDx=0;entryDy=0;" edge="1" parent="1" source="AeCEf1UCao7Z_vWgHj9i-3" target="w_uHxVpiJhdYi6DjlOEM-31">
          <mxGeometry x="-1" y="3" relative="1" as="geometry">
            <mxPoint x="1520" y="1050" as="sourcePoint" />
            <mxPoint x="1680" y="1050" as="targetPoint" />
          </mxGeometry>
        </mxCell>
      </root>
    </mxGraphModel>
  </diagram>
</mxfile>
